<svg version="1.1" xmlns="http://www.w3.org/2000/svg" viewBox="0 0 3722.591386953314 2485.6991904693905" width="7445.182773906628" height="4971.398380938781">
  <!-- svg-source:excalidraw -->
  
  <defs>
    <style class="style-fonts">
      @font-face {
        font-family: "Virgil";
        src: url("https://excalidraw.com/Virgil.woff2");
      }
      @font-face {
        font-family: "Cascadia";
        src: url("https://excalidraw.com/Cascadia.woff2");
      }
      @font-face {
        font-family: "Assistant";
        src: url("https://excalidraw.com/Assistant-Regular.woff2");
      }
    </style>
    
  </defs>
  <rect x="0" y="0" width="3722.591386953314" height="2485.6991904693905" fill="#ffffff"></rect><g stroke-linecap="round" transform="translate(10 796.788012) rotate(0 520.7192069400026 288.03242737305663)"><path d="M0 0 C275.32 1.4, 550.62 2.06, 1041.44 0 M0 0 C274.24 0.96, 548.43 0.65, 1041.44 0 M1041.44 0 C1039.52 185.92, 1040.15 369.68, 1041.44 576.06 M1041.44 0 C1040.93 156.15, 1040.93 313.11, 1041.44 576.06 M1041.44 576.06 C664.68 575.06, 287.58 576.1, 0 576.06 M1041.44 576.06 C799.94 579.62, 558.78 579.27, 0 576.06 M0 576.06 C-0.16 406.75, 0.26 238.02, 0 0 M0 576.06 C-1.11 387.11, -0.63 197.47, 0 0" stroke="#000000" stroke-width="1" fill="none"></path></g><g stroke-linecap="round"><g transform="translate(11.350816690248394 945.4408654519984) rotate(0 519.2971824978167 -3.323037921618379)"><path d="M-0.77 0.61 C172.45 -0.63, 865.43 -5.84, 1038.81 -7.09 M1.02 -0.12 C174.16 -1.22, 864.94 -4.86, 1037.97 -5.78" stroke="#000000" stroke-width="1" fill="none"></path></g></g><mask></mask><g transform="translate(407.11336230060624 853.781287335979) rotate(0 126.96666717529297 22.5)"><text x="126.96666717529297" y="31.536" font-family="Virgil, Segoe UI Emoji" font-size="36px" fill="#1e1e1e" text-anchor="middle" style="white-space: pre;" direction="ltr" dominant-baseline="alphabetic">Authentication</text></g><g transform="translate(35.97587832847785 991.5792893713742) rotate(0 253.1999969482422 151.19999999999982)"><text x="0" y="34.762499999999996" font-family="Cascadia, Segoe UI Emoji" font-size="36px" fill="#1e1e1e" text-anchor="start" style="white-space: pre;" direction="ltr" dominant-baseline="alphabetic">- resource_id (users.id)</text><text x="0" y="77.96249999999999" font-family="Cascadia, Segoe UI Emoji" font-size="36px" fill="#1e1e1e" text-anchor="start" style="white-space: pre;" direction="ltr" dominant-baseline="alphabetic">- access_token</text><text x="0" y="121.1625" font-family="Cascadia, Segoe UI Emoji" font-size="36px" fill="#1e1e1e" text-anchor="start" style="white-space: pre;" direction="ltr" dominant-baseline="alphabetic">- refresh_token</text><text x="0" y="164.36249999999998" font-family="Cascadia, Segoe UI Emoji" font-size="36px" fill="#1e1e1e" text-anchor="start" style="white-space: pre;" direction="ltr" dominant-baseline="alphabetic">- access_expires_at</text><text x="0" y="207.56249999999997" font-family="Cascadia, Segoe UI Emoji" font-size="36px" fill="#1e1e1e" text-anchor="start" style="white-space: pre;" direction="ltr" dominant-baseline="alphabetic">- refresh_expires_at</text><text x="0" y="250.76249999999996" font-family="Cascadia, Segoe UI Emoji" font-size="36px" fill="#1e1e1e" text-anchor="start" style="white-space: pre;" direction="ltr" dominant-baseline="alphabetic">- created_at</text><text x="0" y="293.9625" font-family="Cascadia, Segoe UI Emoji" font-size="36px" fill="#1e1e1e" text-anchor="start" style="white-space: pre;" direction="ltr" dominant-baseline="alphabetic">- updated_at</text></g><g stroke-linecap="round" transform="translate(1336.6780629999994 796.788012) rotate(0 520.7192069400026 288.03242737305663)"><path d="M0 0 C381.13 3.14, 762.46 3.24, 1041.44 0 M0 0 C270.49 -0.71, 541.03 -0.82, 1041.44 0 M1041.44 0 C1041.66 136.79, 1041.57 272.96, 1041.44 576.06 M1041.44 0 C1043.33 226.18, 1043.01 452.95, 1041.44 576.06 M1041.44 576.06 C685.13 575.14, 327.88 576.18, 0 576.06 M1041.44 576.06 C688.21 574.7, 334.68 575.24, 0 576.06 M0 576.06 C2.07 403.65, 2.28 231.62, 0 0 M0 576.06 C0.4 370.83, 0.93 165.23, 0 0" stroke="#000000" stroke-width="1" fill="none"></path></g><g stroke-linecap="round"><g transform="translate(1338.0288796902496 945.4408654519984) rotate(0 519.2971824978158 -3.323037921618379)"><path d="M-0.67 -0.13 C172.18 -1.08, 864.42 -5.53, 1037.55 -6.62 M1.18 -1.24 C174.35 -1.9, 867.06 -4.39, 1039.72 -5.07" stroke="#000000" stroke-width="1" fill="none"></path></g></g><mask></mask><g transform="translate(1810.7914253006056 853.781287335979) rotate(0 49.96666717529297 22.5)"><text x="49.96666717529297" y="31.536" font-family="Virgil, Segoe UI Emoji" font-size="36px" fill="#1e1e1e" text-anchor="middle" style="white-space: pre;" direction="ltr" dominant-baseline="alphabetic">Users</text></g><g transform="translate(1362.6539413284772 991.5792893713742) rotate(0 284.8500061035156 172.80000000000018)"><text x="0" y="34.762499999999996" font-family="Cascadia, Segoe UI Emoji" font-size="36px" fill="#1e1e1e" text-anchor="start" style="white-space: pre;" direction="ltr" dominant-baseline="alphabetic">- id</text><text x="0" y="77.96249999999999" font-family="Cascadia, Segoe UI Emoji" font-size="36px" fill="#1e1e1e" text-anchor="start" style="white-space: pre;" direction="ltr" dominant-baseline="alphabetic">- user_type</text><text x="0" y="121.1625" font-family="Cascadia, Segoe UI Emoji" font-size="36px" fill="#1e1e1e" text-anchor="start" style="white-space: pre;" direction="ltr" dominant-baseline="alphabetic">- email</text><text x="0" y="164.36249999999998" font-family="Cascadia, Segoe UI Emoji" font-size="36px" fill="#1e1e1e" text-anchor="start" style="white-space: pre;" direction="ltr" dominant-baseline="alphabetic">- password</text><text x="0" y="207.56249999999997" font-family="Cascadia, Segoe UI Emoji" font-size="36px" fill="#1e1e1e" text-anchor="start" style="white-space: pre;" direction="ltr" dominant-baseline="alphabetic">- org_id (organisations.id)</text><text x="0" y="250.76249999999996" font-family="Cascadia, Segoe UI Emoji" font-size="36px" fill="#1e1e1e" text-anchor="start" style="white-space: pre;" direction="ltr" dominant-baseline="alphabetic">- blocked</text><text x="0" y="293.9625" font-family="Cascadia, Segoe UI Emoji" font-size="36px" fill="#1e1e1e" text-anchor="start" style="white-space: pre;" direction="ltr" dominant-baseline="alphabetic">- created_at</text><text x="0" y="337.16249999999997" font-family="Cascadia, Segoe UI Emoji" font-size="36px" fill="#1e1e1e" text-anchor="start" style="white-space: pre;" direction="ltr" dominant-baseline="alphabetic">- updated_at</text></g><g stroke-linecap="round" transform="translate(10.316773999995348 1616.1705080000038) rotate(0 520.7192069400026 429.76434123469335)"><path d="M0 0 C382.76 2.9, 764.06 2.49, 1041.44 0 M0 0 C279.67 2.9, 559.09 2.99, 1041.44 0 M1041.44 0 C1039.35 326.42, 1040.46 652.53, 1041.44 859.53 M1041.44 0 C1041.41 207.68, 1041.42 415.25, 1041.44 859.53 M1041.44 859.53 C721.38 856.77, 401.79 856.9, 0 859.53 M1041.44 859.53 C778.32 859.84, 514.51 859.35, 0 859.53 M0 859.53 C0.34 601.33, -0.24 342.82, 0 0 M0 859.53 C2.96 597.07, 2.82 334.83, 0 0" stroke="#000000" stroke-width="1" fill="none"></path></g><g stroke-linecap="round"><g transform="translate(13.350816690246575 1764.8233614520022) rotate(0 519.2971824978158 -3.323037921618379)"><path d="M1 -0.17 C174.02 -1.27, 865.53 -6.2, 1038.4 -7.43 M0.06 -1.31 C172.89 -2.19, 864.49 -5.4, 1037.36 -6.31" stroke="#000000" stroke-width="1" fill="none"></path></g></g><mask></mask><g transform="translate(398.61336992999713 1673.163783335981) rotate(0 135.46665954589844 22.5)"><text x="135.46665954589844" y="31.536" font-family="Virgil, Segoe UI Emoji" font-size="36px" fill="#1e1e1e" text-anchor="middle" style="white-space: pre;" direction="ltr" dominant-baseline="alphabetic">Forms.Template</text></g><g transform="translate(44.14634096262307 1783.7191012525573) rotate(0 334.01666259765625 336.0234920679022)"><text x="0" y="22.53282531444917" font-family="Cascadia, Segoe UI Emoji" font-size="23.334964726937653px" fill="#1e1e1e" text-anchor="start" style="white-space: pre;" direction="ltr" dominant-baseline="alphabetic">- id</text><text x="0" y="50.53478298677435" font-family="Cascadia, Segoe UI Emoji" font-size="23.334964726937653px" fill="#1e1e1e" text-anchor="start" style="white-space: pre;" direction="ltr" dominant-baseline="alphabetic">- org_id (organisations.id)</text><text x="0" y="78.53674065909954" font-family="Cascadia, Segoe UI Emoji" font-size="23.334964726937653px" fill="#1e1e1e" text-anchor="start" style="white-space: pre;" direction="ltr" dominant-baseline="alphabetic">- created_by (users.id)</text><text x="0" y="106.53869833142473" font-family="Cascadia, Segoe UI Emoji" font-size="23.334964726937653px" fill="#1e1e1e" text-anchor="start" style="white-space: pre;" direction="ltr" dominant-baseline="alphabetic">- approver_id (users.id)</text><text x="0" y="134.54065600374992" font-family="Cascadia, Segoe UI Emoji" font-size="23.334964726937653px" fill="#1e1e1e" text-anchor="start" style="white-space: pre;" direction="ltr" dominant-baseline="alphabetic">- title</text><text x="0" y="162.54261367607506" font-family="Cascadia, Segoe UI Emoji" font-size="23.334964726937653px" fill="#1e1e1e" text-anchor="start" style="white-space: pre;" direction="ltr" dominant-baseline="alphabetic">- description</text><text x="0" y="190.54457134840027" font-family="Cascadia, Segoe UI Emoji" font-size="23.334964726937653px" fill="#1e1e1e" text-anchor="start" style="white-space: pre;" direction="ltr" dominant-baseline="alphabetic">- form_schema: { </text><text x="0" y="218.54652902072547" font-family="Cascadia, Segoe UI Emoji" font-size="23.334964726937653px" fill="#1e1e1e" text-anchor="start" style="white-space: pre;" direction="ltr" dominant-baseline="alphabetic">    [q: '', </text><text x="0" y="246.54848669305062" font-family="Cascadia, Segoe UI Emoji" font-size="23.334964726937653px" fill="#1e1e1e" text-anchor="start" style="white-space: pre;" direction="ltr" dominant-baseline="alphabetic">     input_type: '', label: '', filters: {},</text><text x="0" y="274.5504443653758" font-family="Cascadia, Segoe UI Emoji" font-size="23.334964726937653px" fill="#1e1e1e" text-anchor="start" style="white-space: pre;" direction="ltr" dominant-baseline="alphabetic">     required: true/false,</text><text x="0" y="302.552402037701" font-family="Cascadia, Segoe UI Emoji" font-size="23.334964726937653px" fill="#1e1e1e" text-anchor="start" style="white-space: pre;" direction="ltr" dominant-baseline="alphabetic">     has_filter: true/false</text><text x="0" y="330.5543597100262" font-family="Cascadia, Segoe UI Emoji" font-size="23.334964726937653px" fill="#1e1e1e" text-anchor="start" style="white-space: pre;" direction="ltr" dominant-baseline="alphabetic">    ]}</text><text x="0" y="358.5563173823514" font-family="Cascadia, Segoe UI Emoji" font-size="23.334964726937653px" fill="#1e1e1e" text-anchor="start" style="white-space: pre;" direction="ltr" dominant-baseline="alphabetic">- form_state: 'draft/published/approved/archived'</text><text x="0" y="386.5582750546765" font-family="Cascadia, Segoe UI Emoji" font-size="23.334964726937653px" fill="#1e1e1e" text-anchor="start" style="white-space: pre;" direction="ltr" dominant-baseline="alphabetic">- visible_from: 'mm-dd-yyyy',</text><text x="0" y="414.56023272700173" font-family="Cascadia, Segoe UI Emoji" font-size="23.334964726937653px" fill="#1e1e1e" text-anchor="start" style="white-space: pre;" direction="ltr" dominant-baseline="alphabetic">- expires_on: 'mm-dd-yyyy',</text><text x="0" y="442.5621903993269" font-family="Cascadia, Segoe UI Emoji" font-size="23.334964726937653px" fill="#1e1e1e" text-anchor="start" style="white-space: pre;" direction="ltr" dominant-baseline="alphabetic">- enable_alerts: true/false,</text><text x="0" y="470.5641480716521" font-family="Cascadia, Segoe UI Emoji" font-size="23.334964726937653px" fill="#1e1e1e" text-anchor="start" style="white-space: pre;" direction="ltr" dominant-baseline="alphabetic">- score_variance: number,</text><text x="0" y="498.5661057439773" font-family="Cascadia, Segoe UI Emoji" font-size="23.334964726937653px" fill="#1e1e1e" text-anchor="start" style="white-space: pre;" direction="ltr" dominant-baseline="alphabetic">- show_partial_match: true/false</text><text x="0" y="526.5680634163025" font-family="Cascadia, Segoe UI Emoji" font-size="23.334964726937653px" fill="#1e1e1e" text-anchor="start" style="white-space: pre;" direction="ltr" dominant-baseline="alphabetic">- __total_match_score (computed)</text><text x="0" y="554.5700210886276" font-family="Cascadia, Segoe UI Emoji" font-size="23.334964726937653px" fill="#1e1e1e" text-anchor="start" style="white-space: pre;" direction="ltr" dominant-baseline="alphabetic">- __search_schema: {</text><text x="0" y="582.5719787609528" font-family="Cascadia, Segoe UI Emoji" font-size="23.334964726937653px" fill="#1e1e1e" text-anchor="start" style="white-space: pre;" direction="ltr" dominant-baseline="alphabetic">        [ key: label, input_type: input_type ]</text><text x="0" y="610.573936433278" font-family="Cascadia, Segoe UI Emoji" font-size="23.334964726937653px" fill="#1e1e1e" text-anchor="start" style="white-space: pre;" direction="ltr" dominant-baseline="alphabetic">    }</text><text x="0" y="638.5758941056032" font-family="Cascadia, Segoe UI Emoji" font-size="23.334964726937653px" fill="#1e1e1e" text-anchor="start" style="white-space: pre;" direction="ltr" dominant-baseline="alphabetic">- created_at</text><text x="0" y="666.5778517779283" font-family="Cascadia, Segoe UI Emoji" font-size="23.334964726937653px" fill="#1e1e1e" text-anchor="start" style="white-space: pre;" direction="ltr" dominant-baseline="alphabetic">- updated_at</text></g><g stroke-linecap="round" transform="translate(1300.487804999997 1628.0337190000055) rotate(0 520.7192069400026 405.7968097463008)"><path d="M0 0 C410.42 -1.84, 822.33 -1.67, 1041.44 0 M0 0 C311.28 -1.5, 622.82 -0.96, 1041.44 0 M1041.44 0 C1042.76 315.96, 1042.7 630.45, 1041.44 811.59 M1041.44 0 C1039.49 192.81, 1039.35 385.92, 1041.44 811.59 M1041.44 811.59 C634.38 815.48, 227.87 815.63, 0 811.59 M1041.44 811.59 C750.54 807.62, 459.69 807.54, 0 811.59 M0 811.59 C-0.62 528.27, -0.57 246.24, 0 0 M0 811.59 C-2.16 548.74, -2.39 286.83, 0 0" stroke="#000000" stroke-width="1" fill="none"></path></g><g stroke-linecap="round"><g transform="translate(1301.7578136094417 1776.6865724520057) rotate(0 523.3375865382186 -3.323037921618379)"><path d="M-0.44 0.5 C173.9 -0.46, 871.78 -5.52, 1046.48 -6.66 M1.52 -0.28 C175.65 -0.97, 871.09 -4.37, 1045.44 -5.13" stroke="#000000" stroke-width="1" fill="none"></path></g></g><mask></mask><g transform="translate(1711.715131950019 1685.0269943359845) rotate(0 112.6500015258789 22.5)"><text x="112.6500015258789" y="31.536" font-family="Virgil, Segoe UI Emoji" font-size="36px" fill="#1e1e1e" text-anchor="middle" style="white-space: pre;" direction="ltr" dominant-baseline="alphabetic">Forms.Answer</text></g><g transform="translate(1334.6341459626237 1795.5823122525571) rotate(0 218.13333129882812 182.01272487011374)"><text x="0" y="22.53282531444917" font-family="Cascadia, Segoe UI Emoji" font-size="23.334964726937653px" fill="#1e1e1e" text-anchor="start" style="white-space: pre;" direction="ltr" dominant-baseline="alphabetic">- id</text><text x="0" y="50.53478298677435" font-family="Cascadia, Segoe UI Emoji" font-size="23.334964726937653px" fill="#1e1e1e" text-anchor="start" style="white-space: pre;" direction="ltr" dominant-baseline="alphabetic">- org_id (organisations.id)</text><text x="0" y="78.53674065909954" font-family="Cascadia, Segoe UI Emoji" font-size="23.334964726937653px" fill="#1e1e1e" text-anchor="start" style="white-space: pre;" direction="ltr" dominant-baseline="alphabetic">- created_by (users.id)</text><text x="0" y="106.53869833142473" font-family="Cascadia, Segoe UI Emoji" font-size="23.334964726937653px" fill="#1e1e1e" text-anchor="start" style="white-space: pre;" direction="ltr" dominant-baseline="alphabetic">- answered_by (users.id)</text><text x="0" y="134.54065600374992" font-family="Cascadia, Segoe UI Emoji" font-size="23.334964726937653px" fill="#1e1e1e" text-anchor="start" style="white-space: pre;" direction="ltr" dominant-baseline="alphabetic">- form_id (forms.id)</text><text x="0" y="162.54261367607506" font-family="Cascadia, Segoe UI Emoji" font-size="23.334964726937653px" fill="#1e1e1e" text-anchor="start" style="white-space: pre;" direction="ltr" dominant-baseline="alphabetic">- answers: [</text><text x="0" y="190.54457134840027" font-family="Cascadia, Segoe UI Emoji" font-size="23.334964726937653px" fill="#1e1e1e" text-anchor="start" style="white-space: pre;" direction="ltr" dominant-baseline="alphabetic">        {label: '', value: '' },</text><text x="0" y="218.54652902072547" font-family="Cascadia, Segoe UI Emoji" font-size="23.334964726937653px" fill="#1e1e1e" text-anchor="start" style="white-space: pre;" direction="ltr" dominant-baseline="alphabetic">        {label: '', value: '' },</text><text x="0" y="246.54848669305062" font-family="Cascadia, Segoe UI Emoji" font-size="23.334964726937653px" fill="#1e1e1e" text-anchor="start" style="white-space: pre;" direction="ltr" dominant-baseline="alphabetic">        ... </text><text x="0" y="274.5504443653758" font-family="Cascadia, Segoe UI Emoji" font-size="23.334964726937653px" fill="#1e1e1e" text-anchor="start" style="white-space: pre;" direction="ltr" dominant-baseline="alphabetic">    ]</text><text x="0" y="302.552402037701" font-family="Cascadia, Segoe UI Emoji" font-size="23.334964726937653px" fill="#1e1e1e" text-anchor="start" style="white-space: pre;" direction="ltr" dominant-baseline="alphabetic">- created_at</text><text x="0" y="330.5543597100262" font-family="Cascadia, Segoe UI Emoji" font-size="23.334964726937653px" fill="#1e1e1e" text-anchor="start" style="white-space: pre;" direction="ltr" dominant-baseline="alphabetic">- updated_at</text><text x="0" y="358.5563173823514" font-family="Cascadia, Segoe UI Emoji" font-size="23.334964726937653px" fill="#1e1e1e" text-anchor="start" style="white-space: pre;" direction="ltr" dominant-baseline="alphabetic"></text></g><g stroke-linecap="round" transform="translate(2663.356125999995 796.7880120000054) rotate(0 520.7192069400026 340.6909075980884)"><path d="M0 0 C345.45 -3.13, 691.08 -3.02, 1041.44 0 M0 0 C348.86 -4.28, 697.77 -4.32, 1041.44 0 M1041.44 0 C1043.33 209.03, 1043.61 419.14, 1041.44 681.38 M1041.44 0 C1041.97 163.26, 1042.17 326.95, 1041.44 681.38 M1041.44 681.38 C696.37 683.6, 351.19 683.97, 0 681.38 M1041.44 681.38 C706.51 680.05, 372 679.62, 0 681.38 M0 681.38 C-2.56 542.11, -1.69 403.46, 0 0 M0 681.38 C-0.68 433.23, -0.73 185.5, 0 0" stroke="#000000" stroke-width="1" fill="none"></path></g><g stroke-linecap="round"><g transform="translate(2664.6261346094398 945.4408654520057) rotate(0 523.3375865382186 -3.323037921618379)"><path d="M-1.1 -0.92 C173.07 -1.86, 871.02 -5.47, 1045.74 -6.23 M0.52 1.21 C175 -0.05, 873.59 -6.73, 1047.97 -8.13" stroke="#000000" stroke-width="1" fill="none"></path></g></g><mask></mask><g transform="translate(3108.933451424138 853.7812873359844) rotate(0 78.30000305175781 22.5)"><text x="78.30000305175781" y="31.536" font-family="Virgil, Segoe UI Emoji" font-size="36px" fill="#1e1e1e" text-anchor="middle" style="white-space: pre;" direction="ltr" dominant-baseline="alphabetic">Analytics</text></g><g transform="translate(2704.91424596262 984.3357842525593) rotate(0 211.31666564941406 252.01761905092644)"><text x="0" y="22.53282531444917" font-family="Cascadia, Segoe UI Emoji" font-size="23.334964726937653px" fill="#1e1e1e" text-anchor="start" style="white-space: pre;" direction="ltr" dominant-baseline="alphabetic">- id</text><text x="0" y="50.53478298677435" font-family="Cascadia, Segoe UI Emoji" font-size="23.334964726937653px" fill="#1e1e1e" text-anchor="start" style="white-space: pre;" direction="ltr" dominant-baseline="alphabetic">- org_id (organisations.id)</text><text x="0" y="78.53674065909954" font-family="Cascadia, Segoe UI Emoji" font-size="23.334964726937653px" fill="#1e1e1e" text-anchor="start" style="white-space: pre;" direction="ltr" dominant-baseline="alphabetic">- form_id (forms.id)</text><text x="0" y="106.53869833142473" font-family="Cascadia, Segoe UI Emoji" font-size="23.334964726937653px" fill="#1e1e1e" text-anchor="start" style="white-space: pre;" direction="ltr" dominant-baseline="alphabetic">- title</text><text x="0" y="134.54065600374992" font-family="Cascadia, Segoe UI Emoji" font-size="23.334964726937653px" fill="#1e1e1e" text-anchor="start" style="white-space: pre;" direction="ltr" dominant-baseline="alphabetic">- description</text><text x="0" y="162.54261367607506" font-family="Cascadia, Segoe UI Emoji" font-size="23.334964726937653px" fill="#1e1e1e" text-anchor="start" style="white-space: pre;" direction="ltr" dominant-baseline="alphabetic">- created_by (users.id)</text><text x="0" y="190.54457134840027" font-family="Cascadia, Segoe UI Emoji" font-size="23.334964726937653px" fill="#1e1e1e" text-anchor="start" style="white-space: pre;" direction="ltr" dominant-baseline="alphabetic">- form_state: 'expired/active',</text><text x="0" y="218.54652902072547" font-family="Cascadia, Segoe UI Emoji" font-size="23.334964726937653px" fill="#1e1e1e" text-anchor="start" style="white-space: pre;" direction="ltr" dominant-baseline="alphabetic">- total_submissions</text><text x="0" y="246.54848669305062" font-family="Cascadia, Segoe UI Emoji" font-size="23.334964726937653px" fill="#1e1e1e" text-anchor="start" style="white-space: pre;" direction="ltr" dominant-baseline="alphabetic">- total_matches</text><text x="0" y="274.5504443653758" font-family="Cascadia, Segoe UI Emoji" font-size="23.334964726937653px" fill="#1e1e1e" text-anchor="start" style="white-space: pre;" direction="ltr" dominant-baseline="alphabetic">- partial_matches</text><text x="0" y="302.552402037701" font-family="Cascadia, Segoe UI Emoji" font-size="23.334964726937653px" fill="#1e1e1e" text-anchor="start" style="white-space: pre;" direction="ltr" dominant-baseline="alphabetic">- answers: {</text><text x="0" y="330.5543597100262" font-family="Cascadia, Segoe UI Emoji" font-size="23.334964726937653px" fill="#1e1e1e" text-anchor="start" style="white-space: pre;" direction="ltr" dominant-baseline="alphabetic">     user_id: [{}, {}],</text><text x="0" y="358.5563173823514" font-family="Cascadia, Segoe UI Emoji" font-size="23.334964726937653px" fill="#1e1e1e" text-anchor="start" style="white-space: pre;" direction="ltr" dominant-baseline="alphabetic">     user_id2: [{}, {}],</text><text x="0" y="386.5582750546765" font-family="Cascadia, Segoe UI Emoji" font-size="23.334964726937653px" fill="#1e1e1e" text-anchor="start" style="white-space: pre;" direction="ltr" dominant-baseline="alphabetic">     ...   </text><text x="0" y="414.56023272700173" font-family="Cascadia, Segoe UI Emoji" font-size="23.334964726937653px" fill="#1e1e1e" text-anchor="start" style="white-space: pre;" direction="ltr" dominant-baseline="alphabetic"> }</text><text x="0" y="442.5621903993269" font-family="Cascadia, Segoe UI Emoji" font-size="23.334964726937653px" fill="#1e1e1e" text-anchor="start" style="white-space: pre;" direction="ltr" dominant-baseline="alphabetic">- created_at</text><text x="0" y="470.5641480716521" font-family="Cascadia, Segoe UI Emoji" font-size="23.334964726937653px" fill="#1e1e1e" text-anchor="start" style="white-space: pre;" direction="ltr" dominant-baseline="alphabetic">- updated_at</text><text x="0" y="498.5661057439773" font-family="Cascadia, Segoe UI Emoji" font-size="23.334964726937653px" fill="#1e1e1e" text-anchor="start" style="white-space: pre;" direction="ltr" dominant-baseline="alphabetic"></text></g><g stroke-linecap="round" transform="translate(1336.6780629999994 10) rotate(0 520.7192069400026 288.03242737305663)"><path d="M0 0 C258.13 -2.11, 516.07 -1.97, 1041.44 0 M0 0 C247.99 -0.52, 496.29 -0.99, 1041.44 0 M1041.44 0 C1041.22 224.51, 1041.17 450.09, 1041.44 576.06 M1041.44 0 C1040.5 131.39, 1040.5 263.37, 1041.44 576.06 M1041.44 576.06 C692.81 573.54, 343.72 573.71, 0 576.06 M1041.44 576.06 C688.87 577.88, 336.58 578.27, 0 576.06 M0 576.06 C-1.97 453.3, -2.11 331.44, 0 0 M0 576.06 C1.79 405.68, 1.86 234.56, 0 0" stroke="#000000" stroke-width="1" fill="none"></path></g><g stroke-linecap="round"><g transform="translate(1338.0288796902496 158.65285345199845) rotate(0 519.2971824978158 -3.323037921618379)"><path d="M0.59 -0.49 C173.87 -1.73, 866.59 -6, 1039.47 -6.93 M-0.57 -1.8 C172.66 -2.9, 865.49 -4.48, 1038.98 -5.54" stroke="#000000" stroke-width="1" fill="none"></path></g></g><mask></mask><g transform="translate(1752.3414283523634 66.99327533597898) rotate(0 108.41666412353516 22.5)"><text x="108.41666412353516" y="31.536" font-family="Virgil, Segoe UI Emoji" font-size="36px" fill="#1e1e1e" text-anchor="middle" style="white-space: pre;" direction="ltr" dominant-baseline="alphabetic">Organisation</text></g><g transform="translate(1362.6539413284772 204.79127737137424) rotate(0 168.8000030517578 151.19999999999982)"><text x="0" y="34.762499999999996" font-family="Cascadia, Segoe UI Emoji" font-size="36px" fill="#1e1e1e" text-anchor="start" style="white-space: pre;" direction="ltr" dominant-baseline="alphabetic">- id</text><text x="0" y="77.96249999999999" font-family="Cascadia, Segoe UI Emoji" font-size="36px" fill="#1e1e1e" text-anchor="start" style="white-space: pre;" direction="ltr" dominant-baseline="alphabetic">- org_name</text><text x="0" y="121.1625" font-family="Cascadia, Segoe UI Emoji" font-size="36px" fill="#1e1e1e" text-anchor="start" style="white-space: pre;" direction="ltr" dominant-baseline="alphabetic">- org_domain</text><text x="0" y="164.36249999999998" font-family="Cascadia, Segoe UI Emoji" font-size="36px" fill="#1e1e1e" text-anchor="start" style="white-space: pre;" direction="ltr" dominant-baseline="alphabetic">- org_access_key</text><text x="0" y="207.56249999999997" font-family="Cascadia, Segoe UI Emoji" font-size="36px" fill="#1e1e1e" text-anchor="start" style="white-space: pre;" direction="ltr" dominant-baseline="alphabetic">- blocked</text><text x="0" y="250.76249999999996" font-family="Cascadia, Segoe UI Emoji" font-size="36px" fill="#1e1e1e" text-anchor="start" style="white-space: pre;" direction="ltr" dominant-baseline="alphabetic">- created_at</text><text x="0" y="293.9625" font-family="Cascadia, Segoe UI Emoji" font-size="36px" fill="#1e1e1e" text-anchor="start" style="white-space: pre;" direction="ltr" dominant-baseline="alphabetic">- updated_at</text></g></svg>